<svg width="534" height="186" viewBox="0 0 534 186" fill="none" xmlns="http://www.w3.org/2000/svg">
<path d="M50 116H57.2256C58.1352 120.008 61.717 123 66 123C70.283 123 73.8648 120.008 74.7744 116H82V153C82 161.837 74.8366 169 66 169C57.1634 169 50 161.837 50 153V116ZM100 116H107.226C108.135 120.008 111.717 123 116 123C120.283 123 123.865 120.008 124.774 116H132V140C132 148.837 124.837 156 116 156C107.163 156 100 148.837 100 140V116ZM0 116H7.22559C8.13525 120.008 11.717 123 16 123C20.283 123 23.8648 120.008 24.7744 116H32V136C32 144.837 24.8366 152 16 152C7.16344 152 0 144.837 0 136V116ZM150 116H157.226C158.135 120.008 161.717 123 166 123C170.283 123 173.865 120.008 174.774 116H182V134.5C182 143.337 174.837 150.5 166 150.5C157.163 150.5 150 143.337 150 134.5V116ZM16 80C24.8366 80 32 87.1634 32 96V112H24.7744C23.8648 107.992 20.283 105 16 105C11.717 105 8.13525 107.992 7.22559 112H0V96C0 87.1634 7.16344 80 16 80ZM66 41C74.8366 41 82 48.1634 82 57V112H74.7744C73.8648 107.992 70.283 105 66 105C61.717 105 58.1352 107.992 57.2256 112H50V57C50 48.1634 57.1634 41 66 41ZM116 16C124.837 16 132 23.1634 132 32V112H124.774C123.865 107.992 120.283 105 116 105C111.717 105 108.135 107.992 107.226 112H100V32C100 23.1634 107.163 16 116 16ZM166 62.5C174.837 62.5 182 69.6634 182 78.5V112H174.774C173.865 107.992 170.283 105 166 105C161.717 105 158.135 107.992 157.226 112H150V78.5C150 69.6634 157.163 62.5 166 62.5Z" fill="url(#paint0_linear_2007_2)"/>
<path d="M226.784 155V38.6364H268.261C277.277 38.6364 284.758 40.1894 290.705 43.2955C296.689 46.4015 301.159 50.7008 304.114 56.1932C307.068 61.6477 308.545 67.9545 308.545 75.1136C308.545 82.2348 307.049 88.5038 304.057 93.9205C301.102 99.2992 296.633 103.485 290.648 106.477C284.701 109.47 277.22 110.966 268.205 110.966H236.784V95.8523H266.614C272.295 95.8523 276.917 95.0379 280.477 93.4091C284.076 91.7803 286.708 89.4129 288.375 86.3068C290.042 83.2008 290.875 79.4697 290.875 75.1136C290.875 70.7197 290.023 66.9129 288.318 63.6932C286.652 60.4735 284.019 58.0114 280.42 56.3068C276.86 54.5644 272.182 53.6932 266.386 53.6932H244.341V155H226.784ZM284.227 102.5L312.977 155H292.977L264.795 102.5H284.227ZM328.545 155V67.7273H345.534V155H328.545ZM337.125 54.2614C334.17 54.2614 331.633 53.2765 329.511 51.3068C327.428 49.2992 326.386 46.9129 326.386 44.1477C326.386 41.3447 327.428 38.9583 329.511 36.9886C331.633 34.9811 334.17 33.9773 337.125 33.9773C340.08 33.9773 342.598 34.9811 344.682 36.9886C346.803 38.9583 347.864 41.3447 347.864 44.1477C347.864 46.9129 346.803 49.2992 344.682 51.3068C342.598 53.2765 340.08 54.2614 337.125 54.2614ZM385.378 38.6364V155H368.389V38.6364H385.378ZM425.222 38.6364V155H408.233V38.6364H425.222ZM484.838 156.761C476.656 156.761 469.516 154.886 463.418 151.136C457.319 147.386 452.584 142.14 449.213 135.398C445.842 128.655 444.156 120.777 444.156 111.761C444.156 102.708 445.842 94.7917 449.213 88.0114C452.584 81.2311 457.319 75.9659 463.418 72.2159C469.516 68.4659 476.656 66.5909 484.838 66.5909C493.02 66.5909 500.16 68.4659 506.259 72.2159C512.357 75.9659 517.092 81.2311 520.463 88.0114C523.834 94.7917 525.52 102.708 525.52 111.761C525.52 120.777 523.834 128.655 520.463 135.398C517.092 142.14 512.357 147.386 506.259 151.136C500.16 154.886 493.02 156.761 484.838 156.761ZM484.895 142.5C490.198 142.5 494.592 141.098 498.077 138.295C501.562 135.492 504.137 131.761 505.804 127.102C507.509 122.443 508.361 117.311 508.361 111.705C508.361 106.136 507.509 101.023 505.804 96.3636C504.137 91.6667 501.562 87.8977 498.077 85.0568C494.592 82.2159 490.198 80.7955 484.895 80.7955C479.554 80.7955 475.122 82.2159 471.599 85.0568C468.115 87.8977 465.52 91.6667 463.815 96.3636C462.149 101.023 461.315 106.136 461.315 111.705C461.315 117.311 462.149 122.443 463.815 127.102C465.52 131.761 468.115 135.492 471.599 138.295C475.122 141.098 479.554 142.5 484.895 142.5Z" fill="#006BD7"/>
<defs>
<linearGradient id="paint0_linear_2007_2" x1="0" y1="26.25" x2="182" y2="26.25" gradientUnits="userSpaceOnUse">
<stop stop-color="#5FA5EB"/>
<stop offset="1" stop-color="#006BD7"/>
</linearGradient>
</defs>
</svg>
