<svg width="1087" height="306" viewBox="0 0 1087 306" fill="none" xmlns="http://www.w3.org/2000/svg">
<path d="M100 200H114.446C116.265 208.016 123.434 214 132 214C140.566 214 147.735 208.016 149.554 200H164V274C164 291.673 149.673 306 132 306C114.327 306 100 291.673 100 274V200ZM200 200H214.446C216.265 208.016 223.434 214 232 214C240.566 214 247.735 208.016 249.554 200H264V248C264 265.673 249.673 280 232 280C214.327 280 200 265.673 200 248V200ZM0 200H14.4463C16.2652 208.016 23.4337 214 32 214C40.5663 214 47.7348 208.016 49.5537 200H64V240C64 257.673 49.6731 272 32 272C14.3269 272 0 257.673 0 240V200ZM300 200H314.446C316.265 208.016 323.434 214 332 214C340.566 214 347.735 208.016 349.554 200H364V237C364 254.673 349.673 269 332 269C314.327 269 300 254.673 300 237V200ZM32 128C49.6731 128 64 142.327 64 160V192H49.5537C47.7348 183.984 40.5663 178 32 178C23.4337 178 16.2652 183.984 14.4463 192H0V160C0 142.327 14.3269 128 32 128ZM132 50C149.673 50 164 64.3269 164 82V192H149.554C147.735 183.984 140.566 178 132 178C123.434 178 116.265 183.984 114.446 192H100V82C100 64.3269 114.327 50 132 50ZM232 0C249.673 0 264 14.3269 264 32V192H249.554C247.735 183.984 240.566 178 232 178C223.434 178 216.265 183.984 214.446 192H200V32C200 14.3269 214.327 0 232 0ZM332 93C349.673 93 364 107.327 364 125V192H349.554C347.735 183.984 340.566 178 332 178C323.434 178 316.265 183.984 314.446 192H300V125C300 107.327 314.327 93 332 93Z" fill="url(#paint0_linear_2007_2)"/>
<path d="M478.457 283V70.6364H562.241C578.279 70.6364 591.967 73.5052 603.304 79.2429C614.71 84.9115 623.386 92.965 629.331 103.403C635.345 113.773 638.352 125.974 638.352 140.007C638.352 154.109 635.311 166.241 629.227 176.403C623.144 186.496 614.33 194.239 602.786 199.631C591.31 205.023 577.415 207.719 561.101 207.719H505.003V171.634H553.842C562.414 171.634 569.535 170.458 575.203 168.108C580.872 165.758 585.089 162.232 587.854 157.531C590.688 152.83 592.105 146.989 592.105 140.007C592.105 132.956 590.688 127.011 587.854 122.172C585.089 117.333 580.837 113.669 575.099 111.18C569.431 108.623 562.276 107.344 553.635 107.344H523.357V283H478.457ZM593.142 186.358L645.922 283H596.357L544.717 186.358H593.142ZM669.253 283V123.727H713.426V283H669.253ZM691.443 103.196C684.876 103.196 679.242 101.018 674.541 96.6633C669.91 92.2391 667.594 86.9508 667.594 80.7983C667.594 74.715 669.91 69.4957 674.541 65.1406C679.242 60.7164 684.876 58.5043 691.443 58.5043C698.01 58.5043 703.61 60.7164 708.241 65.1406C712.942 69.4957 715.293 74.715 715.293 80.7983C715.293 86.9508 712.942 92.2391 708.241 96.6633C703.61 101.018 698.01 103.196 691.443 103.196ZM792.985 70.6364V283H748.811V70.6364H792.985ZM872.543 70.6364V283H828.37V70.6364H872.543ZM979.892 286.111C963.785 286.111 949.855 282.689 938.103 275.845C926.421 268.932 917.399 259.323 911.039 247.018C904.68 234.644 901.5 220.3 901.5 203.986C901.5 187.533 904.68 173.154 911.039 160.849C917.399 148.475 926.421 138.866 938.103 132.023C949.855 125.11 963.785 121.653 979.892 121.653C995.999 121.653 1009.89 125.11 1021.58 132.023C1033.33 138.866 1042.38 148.475 1048.74 160.849C1055.1 173.154 1058.28 187.533 1058.28 203.986C1058.28 220.3 1055.1 234.644 1048.74 247.018C1042.38 259.323 1033.33 268.932 1021.58 275.845C1009.89 282.689 995.999 286.111 979.892 286.111ZM980.099 251.892C987.427 251.892 993.545 249.818 998.453 245.67C1003.36 241.454 1007.06 235.716 1009.55 228.457C1012.11 221.199 1013.38 212.938 1013.38 203.675C1013.38 194.411 1012.11 186.151 1009.55 178.892C1007.06 171.634 1003.36 165.896 998.453 161.679C993.545 157.462 987.427 155.354 980.099 155.354C972.702 155.354 966.481 157.462 961.434 161.679C956.457 165.896 952.69 171.634 950.132 178.892C947.643 186.151 946.399 194.411 946.399 203.675C946.399 212.938 947.643 221.199 950.132 228.457C952.69 235.716 956.457 241.454 961.434 245.67C966.481 249.818 972.702 251.892 980.099 251.892Z" fill="#5FA5EB"/>
<defs>
<linearGradient id="paint0_linear_2007_2" x1="0" y1="20.5" x2="364" y2="20.5" gradientUnits="userSpaceOnUse">
<stop stop-color="#5FA5EB"/>
<stop offset="1" stop-color="#006BD7"/>
</linearGradient>
</defs>
</svg>
