<svg width="534" height="186" viewBox="0 0 534 186" fill="none" xmlns="http://www.w3.org/2000/svg">
<path d="M50 116H57.2256C58.1352 120.008 61.717 123 66 123C70.283 123 73.8648 120.008 74.7744 116H82V153C82 161.837 74.8366 169 66 169C57.1634 169 50 161.837 50 153V116ZM100 116H107.226C108.135 120.008 111.717 123 116 123C120.283 123 123.865 120.008 124.774 116H132V140C132 148.837 124.837 156 116 156C107.163 156 100 148.837 100 140V116ZM0 116H7.22559C8.13525 120.008 11.717 123 16 123C20.283 123 23.8648 120.008 24.7744 116H32V136C32 144.837 24.8366 152 16 152C7.16344 152 0 144.837 0 136V116ZM150 116H157.226C158.135 120.008 161.717 123 166 123C170.283 123 173.865 120.008 174.774 116H182V134.5C182 143.337 174.837 150.5 166 150.5C157.163 150.5 150 143.337 150 134.5V116ZM16 80C24.8366 80 32 87.1634 32 96V112H24.7744C23.8648 107.992 20.283 105 16 105C11.717 105 8.13525 107.992 7.22559 112H0V96C0 87.1634 7.16344 80 16 80ZM66 41C74.8366 41 82 48.1634 82 57V112H74.7744C73.8648 107.992 70.283 105 66 105C61.717 105 58.1352 107.992 57.2256 112H50V57C50 48.1634 57.1634 41 66 41ZM116 16C124.837 16 132 23.1634 132 32V112H124.774C123.865 107.992 120.283 105 116 105C111.717 105 108.135 107.992 107.226 112H100V32C100 23.1634 107.163 16 116 16ZM166 62.5C174.837 62.5 182 69.6634 182 78.5V112H174.774C173.865 107.992 170.283 105 166 105C161.717 105 158.135 107.992 157.226 112H150V78.5C150 69.6634 157.163 62.5 166 62.5Z" fill="url(#paint0_linear_2007_2)"/>
<path d="M236.091 155V38.6364H275.409C284.5 38.6364 291.962 40.1894 297.795 43.2955C303.629 46.3636 307.947 50.5871 310.75 55.9659C313.553 61.3447 314.955 67.4621 314.955 74.3182C314.955 81.1742 313.553 87.2538 310.75 92.5568C307.947 97.8598 303.648 102.027 297.852 105.057C292.057 108.049 284.652 109.545 275.636 109.545H243.818V96.8182H275.182C281.394 96.8182 286.394 95.9091 290.182 94.0909C294.008 92.2727 296.773 89.697 298.477 86.3636C300.22 82.9924 301.091 78.9773 301.091 74.3182C301.091 69.6591 300.22 65.5871 298.477 62.1023C296.735 58.6174 293.951 55.928 290.125 54.0341C286.299 52.1023 281.242 51.1364 274.955 51.1364H250.182V155H236.091ZM290.864 102.727L319.5 155H303.136L274.955 102.727H290.864ZM336.616 155V67.7273H350.026V155H336.616ZM343.435 53.1818C340.821 53.1818 338.567 52.2917 336.673 50.5114C334.817 48.7311 333.889 46.5909 333.889 44.0909C333.889 41.5909 334.817 39.4508 336.673 37.6705C338.567 35.8902 340.821 35 343.435 35C346.048 35 348.283 35.8902 350.139 37.6705C352.033 39.4508 352.98 41.5909 352.98 44.0909C352.98 46.5909 352.033 48.7311 350.139 50.5114C348.283 52.2917 346.048 53.1818 343.435 53.1818ZM387.994 38.6364V155H374.585V38.6364H387.994ZM425.963 38.6364V155H412.554V38.6364H425.963ZM485.977 156.818C478.098 156.818 471.186 154.943 465.239 151.193C459.33 147.443 454.708 142.197 451.375 135.455C448.08 128.712 446.432 120.833 446.432 111.818C446.432 102.727 448.08 94.7917 451.375 88.0114C454.708 81.2311 459.33 75.9659 465.239 72.2159C471.186 68.4659 478.098 66.5909 485.977 66.5909C493.856 66.5909 500.75 68.4659 506.659 72.2159C512.606 75.9659 517.227 81.2311 520.523 88.0114C523.856 94.7917 525.523 102.727 525.523 111.818C525.523 120.833 523.856 128.712 520.523 135.455C517.227 142.197 512.606 147.443 506.659 151.193C500.75 154.943 493.856 156.818 485.977 156.818ZM485.977 144.773C491.962 144.773 496.886 143.239 500.75 140.17C504.614 137.102 507.473 133.068 509.33 128.068C511.186 123.068 512.114 117.652 512.114 111.818C512.114 105.985 511.186 100.549 509.33 95.5114C507.473 90.4735 504.614 86.4015 500.75 83.2955C496.886 80.1894 491.962 78.6364 485.977 78.6364C479.992 78.6364 475.068 80.1894 471.205 83.2955C467.341 86.4015 464.481 90.4735 462.625 95.5114C460.769 100.549 459.841 105.985 459.841 111.818C459.841 117.652 460.769 123.068 462.625 128.068C464.481 133.068 467.341 137.102 471.205 140.17C475.068 143.239 479.992 144.773 485.977 144.773Z" fill="#006BD7"/>
<defs>
<linearGradient id="paint0_linear_2007_2" x1="0" y1="26.25" x2="182" y2="26.25" gradientUnits="userSpaceOnUse">
<stop stop-color="#5FA5EB"/>
<stop offset="1" stop-color="#006BD7"/>
</linearGradient>
</defs>
</svg>
