<svg width="182" height="153" viewBox="0 0 182 153" fill="none" xmlns="http://www.w3.org/2000/svg">
<path d="M50 100H57.2256C58.1352 104.008 61.717 107 66 107C70.283 107 73.8648 104.008 74.7744 100H82V137C82 145.837 74.8366 153 66 153C57.1634 153 50 145.837 50 137V100ZM100 100H107.226C108.135 104.008 111.717 107 116 107C120.283 107 123.865 104.008 124.774 100H132V124C132 132.837 124.837 140 116 140C107.163 140 100 132.837 100 124V100ZM0 100H7.22559C8.13525 104.008 11.717 107 16 107C20.283 107 23.8648 104.008 24.7744 100H32V120C32 128.837 24.8366 136 16 136C7.16344 136 0 128.837 0 120V100ZM150 100H157.226C158.135 104.008 161.717 107 166 107C170.283 107 173.865 104.008 174.774 100H182V118.5C182 127.337 174.837 134.5 166 134.5C157.163 134.5 150 127.337 150 118.5V100ZM16 64C24.8366 64 32 71.1634 32 80V96H24.7744C23.8648 91.9923 20.283 89 16 89C11.717 89 8.13525 91.9923 7.22559 96H0V80C0 71.1634 7.16344 64 16 64ZM66 25C74.8366 25 82 32.1634 82 41V96H74.7744C73.8648 91.9923 70.283 89 66 89C61.717 89 58.1352 91.9923 57.2256 96H50V41C50 32.1634 57.1634 25 66 25ZM116 0C124.837 0 132 7.16344 132 16V96H124.774C123.865 91.9923 120.283 89 116 89C111.717 89 108.135 91.9923 107.226 96H100V16C100 7.16344 107.163 0 116 0ZM166 46.5C174.837 46.5 182 53.6634 182 62.5V96H174.774C173.865 91.9923 170.283 89 166 89C161.717 89 158.135 91.9923 157.226 96H150V62.5C150 53.6634 157.163 46.5 166 46.5Z" fill="url(#paint0_linear_2001_26)"/>
<defs>
<linearGradient id="paint0_linear_2001_26" x1="0" y1="10.25" x2="182" y2="10.25" gradientUnits="userSpaceOnUse">
<stop stop-color="#5FA5EB"/>
<stop offset="1" stop-color="#006BD7"/>
</linearGradient>
</defs>
</svg>
