<svg width="364" height="306" viewBox="0 0 364 306" fill="none" xmlns="http://www.w3.org/2000/svg">
<path d="M100 200H114.446C116.265 208.016 123.434 214 132 214C140.566 214 147.735 208.016 149.554 200H164V274C164 291.673 149.673 306 132 306C114.327 306 100 291.673 100 274V200ZM200 200H214.446C216.265 208.016 223.434 214 232 214C240.566 214 247.735 208.016 249.554 200H264V248C264 265.673 249.673 280 232 280C214.327 280 200 265.673 200 248V200ZM0 200H14.4463C16.2652 208.016 23.4337 214 32 214C40.5663 214 47.7348 208.016 49.5537 200H64V240C64 257.673 49.6731 272 32 272C14.3269 272 0 257.673 0 240V200ZM300 200H314.446C316.265 208.016 323.434 214 332 214C340.566 214 347.735 208.016 349.554 200H364V237C364 254.673 349.673 269 332 269C314.327 269 300 254.673 300 237V200ZM32 128C49.6731 128 64 142.327 64 160V192H49.5537C47.7348 183.984 40.5663 178 32 178C23.4337 178 16.2652 183.984 14.4463 192H0V160C0 142.327 14.3269 128 32 128ZM132 50C149.673 50 164 64.3269 164 82V192H149.554C147.735 183.984 140.566 178 132 178C123.434 178 116.265 183.984 114.446 192H100V82C100 64.3269 114.327 50 132 50ZM232 0C249.673 0 264 14.3269 264 32V192H249.554C247.735 183.984 240.566 178 232 178C223.434 178 216.265 183.984 214.446 192H200V32C200 14.3269 214.327 0 232 0ZM332 93C349.673 93 364 107.327 364 125V192H349.554C347.735 183.984 340.566 178 332 178C323.434 178 316.265 183.984 314.446 192H300V125C300 107.327 314.327 93 332 93Z" fill="url(#paint0_linear_2001_26)"/>
<defs>
<linearGradient id="paint0_linear_2001_26" x1="0" y1="20.5" x2="364" y2="20.5" gradientUnits="userSpaceOnUse">
<stop stop-color="#5FA5EB"/>
<stop offset="1" stop-color="#006BD7"/>
</linearGradient>
</defs>
</svg>
